<mxfile host="app.diagrams.net" agent="Mozilla/5.0 (Windows NT 10.0; Win64; x64) AppleWebKit/537.36 (KHTML, like Gecko) Chrome/133.0.0.0 Safari/537.36" version="26.0.12">
  <diagram name="Page-1" id="sTimmqhI5IrXiOqcq_pK">
    <mxGraphModel dx="1050" dy="713" grid="1" gridSize="10" guides="1" tooltips="1" connect="1" arrows="1" fold="1" page="1" pageScale="1" pageWidth="850" pageHeight="1100" math="0" shadow="0">
      <root>
        <mxCell id="0" />
        <mxCell id="1" parent="0" />
        <mxCell id="sRn-QjWl17zxAMXv6LTc-1" value="My Learning Conceptual Diagram in Diagram" style="text;html=1;whiteSpace=wrap;overflow=hidden;rounded=0;shadow=0;strokeWidth=4;" vertex="1" parent="1">
          <mxGeometry x="320" y="10" width="280" height="40" as="geometry" />
        </mxCell>
        <mxCell id="sRn-QjWl17zxAMXv6LTc-4" value="" style="edgeStyle=orthogonalEdgeStyle;rounded=0;orthogonalLoop=1;jettySize=auto;html=1;" edge="1" parent="1" source="sRn-QjWl17zxAMXv6LTc-2" target="sRn-QjWl17zxAMXv6LTc-3">
          <mxGeometry relative="1" as="geometry" />
        </mxCell>
        <mxCell id="sRn-QjWl17zxAMXv6LTc-6" value="" style="edgeStyle=orthogonalEdgeStyle;rounded=0;orthogonalLoop=1;jettySize=auto;html=1;" edge="1" parent="1" source="sRn-QjWl17zxAMXv6LTc-2" target="sRn-QjWl17zxAMXv6LTc-5">
          <mxGeometry relative="1" as="geometry" />
        </mxCell>
        <mxCell id="sRn-QjWl17zxAMXv6LTc-8" value="" style="edgeStyle=orthogonalEdgeStyle;rounded=0;orthogonalLoop=1;jettySize=auto;html=1;" edge="1" parent="1" source="sRn-QjWl17zxAMXv6LTc-2" target="sRn-QjWl17zxAMXv6LTc-7">
          <mxGeometry relative="1" as="geometry" />
        </mxCell>
        <mxCell id="sRn-QjWl17zxAMXv6LTc-10" value="" style="edgeStyle=orthogonalEdgeStyle;rounded=0;orthogonalLoop=1;jettySize=auto;html=1;" edge="1" parent="1" source="sRn-QjWl17zxAMXv6LTc-2" target="sRn-QjWl17zxAMXv6LTc-9">
          <mxGeometry relative="1" as="geometry" />
        </mxCell>
        <mxCell id="sRn-QjWl17zxAMXv6LTc-13" style="edgeStyle=orthogonalEdgeStyle;rounded=0;orthogonalLoop=1;jettySize=auto;html=1;exitX=1;exitY=0.25;exitDx=0;exitDy=0;entryX=0;entryY=0.5;entryDx=0;entryDy=0;" edge="1" parent="1" source="sRn-QjWl17zxAMXv6LTc-2" target="sRn-QjWl17zxAMXv6LTc-12">
          <mxGeometry relative="1" as="geometry">
            <mxPoint x="540" y="130" as="targetPoint" />
            <Array as="points">
              <mxPoint x="541" y="243" />
              <mxPoint x="541" y="130" />
            </Array>
          </mxGeometry>
        </mxCell>
        <mxCell id="sRn-QjWl17zxAMXv6LTc-2" value="Azure DevOps" style="shape=hexagon;perimeter=hexagonPerimeter2;whiteSpace=wrap;html=1;fixedSize=1;size=20;" vertex="1" parent="1">
          <mxGeometry x="380" y="220" width="120" height="80" as="geometry" />
        </mxCell>
        <mxCell id="sRn-QjWl17zxAMXv6LTc-3" value="1. Azure Boards" style="whiteSpace=wrap;html=1;fillColor=#d5e8d4;strokeColor=#82b366;" vertex="1" parent="1">
          <mxGeometry x="380" y="70" width="120" height="60" as="geometry" />
        </mxCell>
        <mxCell id="sRn-QjWl17zxAMXv6LTc-5" value="2. Azure Pipeline" style="whiteSpace=wrap;html=1;fillColor=#d5e8d4;strokeColor=#82b366;" vertex="1" parent="1">
          <mxGeometry x="580" y="230" width="120" height="60" as="geometry" />
        </mxCell>
        <mxCell id="sRn-QjWl17zxAMXv6LTc-7" value="3. Azure Repository" style="whiteSpace=wrap;html=1;fillColor=#d5e8d4;strokeColor=#82b366;" vertex="1" parent="1">
          <mxGeometry x="380" y="390" width="120" height="60" as="geometry" />
        </mxCell>
        <mxCell id="sRn-QjWl17zxAMXv6LTc-9" value="4. Azure Artifacts" style="whiteSpace=wrap;html=1;fillColor=#d5e8d4;strokeColor=#82b366;" vertex="1" parent="1">
          <mxGeometry x="180" y="230" width="120" height="60" as="geometry" />
        </mxCell>
        <mxCell id="sRn-QjWl17zxAMXv6LTc-12" value="5. Azure Test Plans" style="whiteSpace=wrap;html=1;fillColor=#d5e8d4;strokeColor=#82b366;" vertex="1" parent="1">
          <mxGeometry x="620" y="100" width="120" height="60" as="geometry" />
        </mxCell>
        <mxCell id="sRn-QjWl17zxAMXv6LTc-14" value="" style="rounded=0;whiteSpace=wrap;html=1;fillColor=#d5e8d4;strokeColor=#82b366;" vertex="1" parent="1">
          <mxGeometry x="40" y="50" width="40" height="20" as="geometry" />
        </mxCell>
        <mxCell id="sRn-QjWl17zxAMXv6LTc-16" value="Services" style="text;html=1;align=center;verticalAlign=middle;whiteSpace=wrap;rounded=0;" vertex="1" parent="1">
          <mxGeometry x="80" y="45" width="60" height="30" as="geometry" />
        </mxCell>
      </root>
    </mxGraphModel>
  </diagram>
</mxfile>
